<?xml version="1.0" encoding="utf-8"?>
<!-- Svg Vector Icons : http://www.onlinewebfonts.com/icon -->
<!DOCTYPE svg PUBLIC "-//W3C//DTD SVG 1.1//EN" "http://www.w3.org/Graphics/SVG/1.1/DTD/svg11.dtd">
<svg version="1.1" xmlns="http://www.w3.org/2000/svg" xmlns:xlink="http://www.w3.org/1999/xlink" x="0px" y="0px" viewBox="0 0 256 256" enable-background="new 0 0 256 256" xml:space="preserve">
<metadata> Svg Vector Icons : http://www.onlinewebfonts.com/icon </metadata>
<g><g><path fill="#FFFFFF" d="M184.3,115.8c-34.1,0-61.7,27.6-61.7,61.7s27.6,61.9,61.7,61.9c34.1,0,61.7-27.7,61.7-61.9S218.4,115.8,184.3,115.8z M145.3,139.9h7.1c0,0.2-0.1,0.6,0,0.6c3.3,1.7,5.9,4.7,10.1,4.9c6.9,0.3,12,4.1,17.2,7.9c8.5,6.3,13.6,14.9,17.5,24.4c1,2.4,2.2,4.9,3.6,7.1c0.8,1.3,2.2,2.6,3.6,3.2c6.7,2.7,12.4,6.7,17.6,12.4c-4.3,0.9-8.1,1.7-12.4,2.6c0.8,0.9,1.3,1.5,1.9,2c3.8,3.1,7.6,6.2,11.4,9.2c0.5,0.4,1.2,0.5,1.7,0.7v0.4c-3.4-1.7-6.8-3.3-10.1-5.2c-2.5-1.4-5-3.1-6.9-5.1c-2.9-2.9-2.5-3.9,1.6-4.8c2.8-0.6,5.7-0.9,8.6-1.3c-0.1-0.4-0.2-0.9-0.4-1c-4.4-3-8.5-6.5-14-7.6c-3-0.6-4.6-2.6-5.9-5.2c-3.2-6.5-6.1-13.1-9.9-19.3c-5-8-12.3-13.8-21.5-17.2c-0.4-0.1-0.9-0.5-1.3-0.4c-5.4,0.5-9.4-2.9-13.8-4.9c-0.7-0.3-1.3-0.7-2-0.7c-0.8,0-2,0.2-2.5,0.7c-0.4,0.5-0.3,1.6,0,2.3c0.5,1.2,1.5,2.2,2.2,3.3c1.8,3.2,3.4,6.3,5.2,9.5c1.8,3.3,3.7,6.6,5.3,9.9c0.4,0.9,0.5,2.3,0.1,3.2c-1.8,4.6-2.3,9.2-1.4,14c0.5,2.6,1.3,5.1,3.9,7.2c1.7-4,0.6-8.5,4.5-11.1c2.9,5.2,5.9,10.3,8.8,15.6c-0.2,0.2-0.5,0.3-0.7,0.4c-2.7-3.3-5.2-6.5-8.1-10.1c-0.3,1.5-0.4,2.9-0.9,4.2c-0.5,1.2-1.2,2.8-2.2,3.2c-1,0.3-2.9-0.3-3.8-1.2c-3.1-2.9-4.1-6.9-4-10.8c0-3.5,0.7-7.1,1.4-10.5c0.4-1.8,0.3-2.8-0.7-4.5c-2-3.3-3.4-6.9-5.1-10.4c-0.9-1.9-1.6-3.9-2.9-5.5C145.1,148.4,142.1,144.8,145.3,139.9z M160.8,153.1c0.8,0.4,1.9,0.5,2.3,1.2c0.5,0.7,0.4,1.9,0.6,2.9c-0.3,0-0.6,0.1-0.9,0.1c-0.8-1.2-1.6-2.4-2.5-3.6C160.5,153.5,160.7,153.3,160.8,153.1z"/><path fill="#FFFFFF" d="M117.9,16.7C56.3,17.4,7.9,34.6,10.1,55c2.2,20.5,54,36.6,115.7,35.9c61.7-0.7,109.9-17.9,107.7-38.4C231.3,32.1,179.6,16,117.9,16.7z M10.1,58.4v40.5c-0.1,0.9-0.1,1.9,0,2.7c2.2,20.5,54,36.5,115.7,35.8c0.1,0,0.3,0,0.4,0c9.2-12.4,22.6-22,38.9-26.7c19.8-5.6,40.1-2.9,56.8,6.1c6.8-4.6,11-9.8,11.5-15.1h0.1V61c-2,19.3-48.9,35.1-107.9,35.8C64.1,97.5,12.4,81.5,10.2,61c-0.1-0.9-0.1-1.7,0-2.6H10.1z M10.1,105.8v40.7c-0.1,0.9-0.1,1.7,0,2.6c2,19,46.7,34.1,102.3,35.6c-1.1-14.3,2.4-28.3,9.4-40.4c-59.8,0-109.4-15.9-111.5-35.9c-0.1-0.9-0.1-1.7,0-2.6H10.1z M233.6,108.6c-0.4,3.9-2.8,7.7-6.6,11.2c2.3,1.4,4.5,2.9,6.6,4.6V108.6z M10.1,153.4v40.5c-0.1,0.9-0.1,1.7,0,2.6c2.2,20.5,54,36.6,115.7,35.9c3.6,0,7.2-0.1,10.7-0.3c-9.7-8.5-17.4-19.6-21.3-32.6c-0.8-2.6-1.4-5.2-1.9-7.8c-56-1.4-101-16.7-103-35.8c-0.1-0.9-0.1-1.7,0-2.6L10.1,153.4L10.1,153.4z"/></g></g>
</svg>